# xmcd
#
# Track frame offsets: 
#        150
#        20685
#        38682
#        58965
#        75080
#        100775
#        122832
#        141625
#        161452
#        182172
#        203272
#
# Disc length: 2919 seconds
#
# Revision: 12
# Processed by: cddbd v1.5.2PL0 Copyright (c) Steve Scherf et al.
# Submitted via: ExactAudioCopy v1.3
#
DISCID=8b0b650b
DTITLE=Alexandre Pires - Alexandre Pires
DYEAR=2001
DGENRE=Latin
TTITLE0=Usted Se Me Llevo La Vida
TTITLE1=Aqui Nada Es Igual
TTITLE2=Si Tu Me Amaras
TTITLE3=Demasiado Fuerte
TTITLE4=Necesidad
TTITLE5=Es Por Amor
TTITLE6=Como Una Ola En El Mar
TTITLE7=Que Llueva Pa'rriba
TTITLE8=Ni Un Poquito De Piedad
TTITLE9=Abandono
TTITLE10=Amor De Mujer (Duo De Alexandre Pires Y Shawn Desmond)
EXTD=
EXTT0=
EXTT1=
EXTT2=
EXTT3=
EXTT4=
EXTT5=
EXTT6=
EXTT7=
EXTT8=
EXTT9=
EXTT10=
PLAYORDER=
